<?xml version="1.0" encoding="UTF-8" standalone="no"?>
<!DOCTYPE svg PUBLIC "-//W3C//DTD SVG 1.1//EN" "http://www.w3.org/Graphics/SVG/1.1/DTD/svg11.dtd">
<svg width="100%" height="100%" viewBox="0 0 1000 1000" version="1.1" xmlns="http://www.w3.org/2000/svg" xmlns:xlink="http://www.w3.org/1999/xlink" xml:space="preserve" xmlns:serif="http://www.serif.com/" style="fill-rule:evenodd;clip-rule:evenodd;stroke-linejoin:round;stroke-miterlimit:2;">
    <g transform="matrix(-1.05014,0.509893,0.519674,1.07029,605.116,-289.886)">
        <path d="M257.305,904.468C116.841,733.81 44.288,534.235 61.47,296.451C323.108,340.315 512.448,463.77 654.959,638.715C511.74,504.795 303.423,372.13 88.752,334.326C79.349,535.296 137.035,699.226 257.305,904.468Z" style="fill:rgb(0,255,142);"/>
        <path d="M257.305,904.468C116.841,733.81 44.288,534.235 61.47,296.451C323.108,340.315 512.448,463.77 654.959,638.715C511.74,504.795 303.423,372.13 88.752,334.326C79.349,535.296 137.035,699.226 257.305,904.468ZM69.718,306.87C190.073,328.654 294.672,367.672 386.308,420.763C433.575,448.148 477.394,479.295 518.095,513.846C480.152,487.152 440.031,461.805 398.29,438.73C301.817,385.399 196.73,344.227 90.274,326.007L80.597,324.303L80.147,333.939C75.828,440.37 90.018,536.408 122.298,633.452C144.766,701.001 176.005,769.038 215.823,841.468C167.452,771.505 130.04,696.979 104.873,617.325C74.63,521.602 62.102,418.461 69.718,306.87Z" style="fill:white;"/>
    </g>
    <g transform="matrix(1.14988,-0.201417,0.205281,1.17194,-28.9339,-81.6742)">
        <path d="M257.305,904.468C116.841,733.81 44.288,534.235 61.47,296.451C323.108,340.315 512.448,463.77 654.959,638.715C511.74,504.795 303.423,372.13 88.752,334.326C79.349,535.296 137.035,699.226 257.305,904.468Z" style="fill:rgb(162,0,255);"/>
        <path d="M257.305,904.468C116.841,733.81 44.288,534.235 61.47,296.451C323.108,340.315 512.448,463.77 654.959,638.715C511.74,504.795 303.423,372.13 88.752,334.326C79.349,535.296 137.035,699.226 257.305,904.468ZM69.718,306.87C62.102,418.461 74.63,521.602 104.873,617.325C130.04,696.979 167.452,771.505 215.823,841.468C176.005,769.038 144.766,701.001 122.298,633.452C90.018,536.408 75.828,440.37 80.147,333.939L80.597,324.303L90.274,326.007C196.73,344.227 301.817,385.399 398.29,438.73C440.031,461.805 480.152,487.152 518.095,513.846C477.394,479.295 433.575,448.148 386.308,420.763C294.672,367.672 190.073,328.654 69.718,306.87Z" style="fill:white;"/>
    </g>
    <path d="M811.415,497.858L812.358,508.259L825.243,515.472L824.886,508.858L811.415,497.858Z" style="fill:rgb(0,255,142);"/>
    <path d="M811.415,497.858L812.358,508.259L825.243,515.472L824.886,508.858L811.415,497.858Z" style="fill:rgb(0,255,142);"/>
</svg>
